<svg width="40" height="40" viewBox="0 0 40 40" fill="none" xmlns="http://www.w3.org/2000/svg">
<g clip-path="url(#clip0_1_42)">
<path d="M23.3517 7.70665C24.6367 9.12725 25.5521 10.8425 26.0169 12.7008C26.4817 14.5592 26.4816 16.5034 26.0167 18.3617L25.8983 18.7983L31.565 26.0867C32.0421 26.6999 32.3522 27.4263 32.4653 28.195C32.5783 28.9638 32.4904 29.7487 32.21 30.4733C32.4105 30.5279 32.6207 30.5365 32.825 30.4983L33.025 30.4483C33.4425 30.3151 33.8956 30.3517 34.2863 30.5502C34.677 30.7486 34.9738 31.0929 35.1125 31.5086C35.2512 31.9243 35.2207 32.3778 35.0274 32.7711C34.8342 33.1644 34.4938 33.4658 34.08 33.61C32.9965 33.9831 31.8128 33.9391 30.76 33.4867C30.4322 33.348 30.1213 33.1725 29.8333 32.9633C29.1424 33.2686 28.3857 33.395 27.6331 33.3309C26.8805 33.2668 26.1561 33.0143 25.5267 32.5967L25.2533 32.3983L17.9667 26.7317C16.0548 27.2896 14.0319 27.3488 12.0906 26.9036C10.1494 26.4584 8.35439 25.5236 6.87667 24.1883C10.4375 22.4493 13.684 20.1299 16.4833 17.325C19.2909 14.5231 21.6121 11.2714 23.3517 7.70665ZM20.6983 5.52332C19.0894 9.03832 16.8636 12.2366 14.1267 14.9667C11.3982 17.7012 8.20227 19.9252 4.69 21.5333C3.35332 19.3018 2.80041 16.6876 3.11907 14.1059C3.43772 11.5243 4.60967 9.12304 6.44885 7.28347C8.28803 5.44391 10.689 4.27146 13.2706 3.95226C15.8522 3.63307 18.4665 4.1871 20.6983 5.52332Z" fill="black"/>
</g>
<defs>
<clipPath id="clip0_1_42">
<rect width="40" height="40" fill="white"/>
</clipPath>
</defs>
</svg>
