<svg width="42" height="42" viewBox="0 0 42 42" fill="none" xmlns="http://www.w3.org/2000/svg">
<path d="M33.4166 33.5C31.1041 33.5 29.25 35.3542 29.25 37.6667C29.25 38.7717 29.689 39.8315 30.4704 40.6129C31.2518 41.3943 32.3116 41.8333 33.4166 41.8333C34.5217 41.8333 35.5815 41.3943 36.3629 40.6129C37.1443 39.8315 37.5833 38.7717 37.5833 37.6667C37.5833 36.5616 37.1443 35.5018 36.3629 34.7204C35.5815 33.939 34.5217 33.5 33.4166 33.5ZM0.083313 0.166656V4.33332H4.24998L11.75 20.1458L8.91665 25.25C8.60415 25.8333 8.41665 26.5208 8.41665 27.25C8.41665 28.3551 8.85563 29.4149 9.63704 30.1963C10.4184 30.9777 11.4782 31.4167 12.5833 31.4167H37.5833V27.25H13.4583C13.3202 27.25 13.1877 27.1951 13.09 27.0974C12.9924 26.9998 12.9375 26.8673 12.9375 26.7292C12.9375 26.625 12.9583 26.5417 13 26.4792L14.875 23.0833H30.3958C31.9583 23.0833 33.3333 22.2083 34.0416 20.9375L41.5 7.45832C41.6458 7.12499 41.75 6.77082 41.75 6.41666C41.75 5.86412 41.5305 5.33422 41.1398 4.94352C40.7491 4.55282 40.2192 4.33332 39.6666 4.33332H8.85415L6.89581 0.166656M12.5833 33.5C10.2708 33.5 8.41665 35.3542 8.41665 37.6667C8.41665 38.7717 8.85563 39.8315 9.63704 40.6129C10.4184 41.3943 11.4782 41.8333 12.5833 41.8333C13.6884 41.8333 14.7482 41.3943 15.5296 40.6129C16.311 39.8315 16.75 38.7717 16.75 37.6667C16.75 36.5616 16.311 35.5018 15.5296 34.7204C14.7482 33.939 13.6884 33.5 12.5833 33.5Z" fill="black"/>
</svg>
