<svg width="40" height="40" viewBox="0 0 40 40" fill="none" xmlns="http://www.w3.org/2000/svg">
<g clip-path="url(#clip0_1_47)">
<path d="M39.1562 5.94532C40.0234 5.37501 40.2656 4.21876 39.6953 3.35157C39.125 2.48439 37.9688 2.2422 37.1016 2.81251L28.9219 8.16407C26.2344 7.71095 23.2031 7.50001 20 7.50001C8.95312 7.50001 0 10 0 16.25V28.75C0 31.1953 2.14062 33.3438 5.625 34.8984V26.875C5.625 25.8359 6.46094 25 7.5 25C8.53906 25 9.375 25.8359 9.375 26.875V36.2031C11.9531 36.8984 14.9297 37.3359 18.125 37.4609V29.375C18.125 28.3359 18.9609 27.5 20 27.5C21.0391 27.5 21.875 28.3359 21.875 29.375V37.4609C25.0703 37.3359 28.0469 36.8984 30.625 36.2031V26.875C30.625 25.8359 31.4609 25 32.5 25C33.5391 25 34.375 25.8359 34.375 26.875V34.8984C37.8594 33.3438 40 31.1953 40 28.75V16.25C40 13.0391 37.6406 10.8203 33.8438 9.42189L39.1484 5.94532H39.1562ZM24.0156 11.375L18.9688 14.6797C18.1016 15.25 17.8594 16.4063 18.4297 17.2734C19 18.1406 20.1562 18.3828 21.0234 17.8125L29.7031 12.125C30.8516 12.375 31.8828 12.6719 32.7812 13.0234C35.8125 14.2031 36.25 15.4219 36.25 16.25C36.25 16.3125 36.0391 17.5938 32.6562 19.0547C29.6172 20.3672 25.1562 21.25 20 21.25C14.8438 21.25 10.3828 20.3672 7.34375 19.0547C3.96094 17.5938 3.75 16.3125 3.75 16.25C3.75 15.4219 4.1875 14.2031 7.21875 13.0234C10.2031 11.8672 14.6719 11.25 20 11.25C21.4062 11.25 22.7422 11.2891 24.0156 11.375Z" fill="black"/>
</g>
<defs>
<clipPath id="clip0_1_47">
<rect width="40" height="40" fill="white"/>
</clipPath>
</defs>
</svg>
