<svg width="40" height="40" viewBox="0 0 40 40" fill="none" xmlns="http://www.w3.org/2000/svg">
<path d="M13.675 14.6375C14.3447 14.6375 14.9869 14.3715 15.4605 13.898C15.934 13.4244 16.2 12.7822 16.2 12.1125C16.2 11.4429 15.934 10.8006 15.4605 10.3271C14.9869 9.85355 14.3447 9.58752 13.675 9.58752C13.0054 9.58752 12.3631 9.85355 11.8896 10.3271C11.4161 10.8006 11.15 11.4429 11.15 12.1125C11.15 12.7822 11.4161 13.4244 11.8896 13.898C12.3631 14.3715 13.0054 14.6375 13.675 14.6375ZM29.475 12.1125C29.475 12.7822 29.209 13.4244 28.7355 13.898C28.2619 14.3715 27.6197 14.6375 26.95 14.6375C26.2804 14.6375 25.6381 14.3715 25.1646 13.898C24.6911 13.4244 24.425 12.7822 24.425 12.1125C24.425 11.4429 24.6911 10.8006 25.1646 10.3271C25.6381 9.85355 26.2804 9.58752 26.95 9.58752C27.6197 9.58752 28.2619 9.85355 28.7355 10.3271C29.209 10.8006 29.475 11.4429 29.475 12.1125Z" fill="black"/>
<path d="M33.725 2.5C33.725 3.975 33.175 5.3 32.275 6.325C33.4 7.625 34.0875 9.3125 34.0875 11.15C34.0875 13.1038 33.665 14.6188 32.9063 15.7913C33.61 17.4538 34 19.2812 34 21.2C34 26.3087 31.2388 30.7725 27.1288 33.18C27.7413 34.1625 28.1513 35.285 28.3 36.4875C28.4163 37.4263 27.6388 38.125 26.8 38.125H13.6375C12.7988 38.125 12.0213 37.4263 12.1375 36.4875C12.2825 35.3175 12.675 34.225 13.2625 33.2625C11.1321 32.0507 9.36084 30.2961 8.12903 28.1772C6.89723 26.0584 6.24889 23.6509 6.25 21.2C6.25 19.2125 6.6675 17.3225 7.42125 15.6125C6.73125 14.4662 6.35 13.0063 6.35 11.15C6.35 9.3125 7.0375 7.625 8.1625 6.325C7.22927 5.26925 6.71365 3.90908 6.7125 2.5H13.7625C15.125 2.5 16.375 2.975 17.3625 3.7625H23.0625C24.05 2.975 25.3 2.5 26.6625 2.5H33.725ZM14.3788 33.8325C13.8538 34.6675 13.5038 35.62 13.3788 36.6413C13.3747 36.6684 13.3772 36.6962 13.3858 36.7222C13.3945 36.7483 13.4092 36.7719 13.4288 36.7913C13.4561 36.8185 13.4887 36.84 13.5246 36.8544C13.5605 36.8688 13.5989 36.8758 13.6375 36.875H26.8C26.8384 36.8756 26.8766 36.8685 26.9122 36.8541C26.9479 36.8398 26.9803 36.8184 27.0075 36.7913C27.0275 36.7722 27.0426 36.7486 27.0518 36.7226C27.0609 36.6965 27.0637 36.6686 27.06 36.6413C26.9335 35.6164 26.5776 34.6333 26.0188 33.765C25.0188 34.235 23.9525 34.5887 22.84 34.81C21.9718 35.1549 21.0467 35.3338 20.1125 35.3375C19.1613 35.3375 18.2375 35.1463 17.3588 34.8C16.3188 34.5887 15.3213 34.2625 14.3788 33.8325ZM19.75 19.7025C15.8313 19.7025 12.295 19.375 9.83875 17.9275C9.49764 18.9297 9.32407 19.9813 9.325 21.04C9.325 26.6525 14.15 33.75 20.1125 33.75C26.075 33.75 30.9 26.6525 30.9 21.04C30.9 19.9925 30.7325 18.9812 30.4213 18.03C27.975 19.39 24.5125 19.7025 20.6875 19.7025H19.75ZM13.675 16.2125C14.7624 16.2125 15.8052 15.7805 16.5741 15.0116C17.343 14.2427 17.775 13.1999 17.775 12.1125C17.775 11.0251 17.343 9.98226 16.5741 9.21336C15.8052 8.44446 14.7624 8.0125 13.675 8.0125C12.5876 8.0125 11.5448 8.44446 10.7759 9.21336C10.007 9.98226 9.575 11.0251 9.575 12.1125C9.575 13.1999 10.007 14.2427 10.7759 15.0116C11.5448 15.7805 12.5876 16.2125 13.675 16.2125ZM26.95 16.2125C28.0374 16.2125 29.0802 15.7805 29.8491 15.0116C30.618 14.2427 31.05 13.1999 31.05 12.1125C31.05 11.0251 30.618 9.98226 29.8491 9.21336C29.0802 8.44446 28.0374 8.0125 26.95 8.0125C25.8626 8.0125 24.8198 8.44446 24.0509 9.21336C23.282 9.98226 22.85 11.0251 22.85 12.1125C22.85 13.1999 23.282 14.2427 24.0509 15.0116C24.8198 15.7805 25.8626 16.2125 26.95 16.2125ZM18.375 15.675H22.2625C22.2625 14.6 21.4 13.7375 20.325 13.725C19.25 13.725 18.375 14.6 18.375 15.675Z" fill="black"/>
</svg>
