<svg width="40" height="40" viewBox="0 0 40 40" fill="none" xmlns="http://www.w3.org/2000/svg">
<path d="M3.795 2.5H37.455C38.17 2.5 38.75 3.06 38.75 3.75V35C38.75 36.3812 37.5913 37.5 36.1613 37.5H5.0875C3.65875 37.5 2.5 36.3812 2.5 35V3.75C2.5 3.06 3.08 2.5 3.795 2.5ZM37.5 11.25H31.25V26.25C31.25 26.5815 31.1183 26.8995 30.8839 27.1339C30.6495 27.3683 30.3315 27.5 30 27.5V35C30 35.3315 30.1317 35.6495 30.3661 35.8839C30.6005 36.1183 30.9185 36.25 31.25 36.25H36.25C36.5815 36.25 36.8995 36.1183 37.1339 35.8839C37.3683 35.6495 37.5 35.3315 37.5 35V11.25ZM27.5 11.25H22.5V26.25C22.5 26.5815 22.3683 26.8995 22.1339 27.1339C21.8995 27.3683 21.5815 27.5 21.25 27.5V35C21.25 35.3315 21.3817 35.6495 21.6161 35.8839C21.8505 36.1183 22.1685 36.25 22.5 36.25H27.5C27.8315 36.25 28.1495 36.1183 28.3839 35.8839C28.6183 35.6495 28.75 35.3315 28.75 35V27.5C28.4185 27.5 28.1005 27.3683 27.8661 27.1339C27.6317 26.8995 27.5 26.5815 27.5 26.25V11.25ZM18.75 11.25H13.75V26.25C13.75 26.5815 13.6183 26.8995 13.3839 27.1339C13.1495 27.3683 12.8315 27.5 12.5 27.5V35C12.5 35.3315 12.6317 35.6495 12.8661 35.8839C13.1005 36.1183 13.4185 36.25 13.75 36.25H18.75C19.0815 36.25 19.3995 36.1183 19.6339 35.8839C19.8683 35.6495 20 35.3315 20 35V27.5C19.6685 27.5 19.3505 27.3683 19.1161 27.1339C18.8817 26.8995 18.75 26.5815 18.75 26.25V11.25ZM10 11.25H3.75V35C3.75 35.3315 3.8817 35.6495 4.11612 35.8839C4.35054 36.1183 4.66848 36.25 5 36.25H10C10.3315 36.25 10.6495 36.1183 10.8839 35.8839C11.1183 35.6495 11.25 35.3315 11.25 35V27.5C10.9185 27.5 10.6005 27.3683 10.3661 27.1339C10.1317 26.8995 10 26.5815 10 26.25V11.25Z" fill="black"/>
</svg>
