<svg width="40" height="40" viewBox="0 0 40 40" fill="none" xmlns="http://www.w3.org/2000/svg">
<path d="M8.67188 4.55469L1.84609 4.58594L1.79844 5.23438L15.0312 7.23438L15.1719 6.60156L8.67188 4.55469ZM32.9531 6.02344L32.9297 8.34375L33.3203 8.28125L33.7031 8.34375L33.6797 6.02344H32.9531ZM7.52578 7.25L7.38437 8.26563L4.79297 10.3281L4.93672 19.3594L5.41797 16.2031L6.16406 16.0234H6.18594L6.10547 10.9453L8.60156 8.96094L8.8125 7.44531L7.52578 7.25ZM33.3203 9.27344L28.1172 10.0859L28.1641 10.7344H38.4766L38.5234 10.0859L33.3203 9.27344ZM28.1641 11.875L28.1172 12.5234L33.3203 13.3359L38.5234 12.5234L38.4766 11.875H28.1641ZM32.875 14.2578L32.8594 15.8828C33.0781 15.9219 33.2969 15.9766 33.5234 16.0234L33.7812 16.0859L33.7656 14.2578L33.3203 14.3281L32.875 14.2578ZM10.4219 16.6562C9.13281 16.6406 7.80469 16.8047 6.42969 17.1328L6.20625 18.6016C8.02344 18.3438 12.1406 18.0625 16.1719 19.7422C16.4844 19.6172 16.8125 19.5 17.1406 19.4062L17.2344 18.7812C15.1563 17.3594 12.875 16.6875 10.4219 16.6562ZM29.2656 16.6562C26.8125 16.6875 24.5312 17.3594 22.4531 18.7812L22.5469 19.4062C22.875 19.5 23.2031 19.6172 23.5156 19.7422C27.5469 18.0625 31.6641 18.3438 33.4844 18.6016L33.2578 17.1328C31.8828 16.8047 30.5547 16.6406 29.2656 16.6562ZM9.10156 19.7031C7.70234 19.7031 6.59375 19.8438 6.00078 19.9453L5.45 23.5625L11.1484 24.4297C11.9375 22.8438 13.1406 21.5 14.625 20.5547C12.6406 19.8906 10.6875 19.7031 9.10156 19.7031ZM30.5859 19.7031C29 19.7031 27.0469 19.8906 25.0625 20.5547C26.5469 21.5 27.75 22.8438 28.5391 24.4297L34.2344 23.5625L33.6875 19.9453C33.0938 19.8438 31.9844 19.7031 30.5859 19.7031ZM19.8438 20.4844C15.9453 20.4844 12.7813 23.6484 12.7813 27.5469C12.7813 31.4453 15.9453 34.6094 19.8438 34.6094C23.7422 34.6094 26.9062 31.4453 26.9062 27.5469C26.9062 23.6484 23.7422 20.4844 19.8438 20.4844ZM5.02109 24.6484L5.12734 31.3281L1.47656 38.125H2.95625L5.55312 33.2812L6.73984 38.125H8.08594L6.43047 31.4062L6.32656 24.8438L5.02109 24.6484ZM33.875 24.7656L32.7656 24.9375L32.7031 30.7266L30.8125 35.0781L31.3906 37.0312L33.3203 32.5781L35.7344 38.125H37.1562L33.9375 30.7266L33.875 24.7656ZM12.0234 25.6719C11.6562 26.6172 11.4609 27.6406 11.4609 28.7109C11.4609 33.3594 15.2188 37.1094 19.8438 37.1094C24.4688 37.1094 28.2266 33.3594 28.2266 28.7109C28.2266 27.6406 28.0312 26.6172 27.6641 25.6719C27.8047 26.2734 27.8828 26.9063 27.8828 27.5469C27.8828 31.9531 24.2812 35.625 19.8438 35.625C15.4063 35.625 11.8047 31.9531 11.8047 27.5469C11.8047 26.9063 11.8828 26.2734 12.0234 25.6719ZM10.6172 31.7188L9.03906 38.125H11.0469L11.9688 34.375C11.3906 33.5156 10.9297 32.6562 10.6172 31.7188ZM29.0703 31.7188C28.7578 32.6562 28.2969 33.5156 27.7188 34.375L28.6406 38.125H30.6484L29.0703 31.7188Z" fill="black"/>
</svg>
