<svg width="219" height="55" viewBox="0 0 219 55" fill="none" xmlns="http://www.w3.org/2000/svg">
<g clip-path="url(#clip0_1_18)">
<path d="M217.942 5.5168C218.606 6.00899 219 6.79649 219 7.625V35.1875C219 38.8133 215.473 41.75 211.125 41.75C206.777 41.75 203.25 38.8133 203.25 35.1875C203.25 31.5617 206.777 28.625 211.125 28.625C212.044 28.625 212.93 28.7563 213.75 29.0023V17.0586L192.75 23.3586V40.4375C192.75 44.0633 189.223 47 184.875 47C180.527 47 177 44.0633 177 40.4375C177 36.8117 180.527 33.875 184.875 33.875C185.794 33.875 186.68 34.0063 187.5 34.2523V15.5C187.5 14.3434 188.263 13.318 189.37 12.9816L215.62 5.10665C216.416 4.86875 217.277 5.01641 217.942 5.5168Z" fill="#FF9A62"/>
</g>
<path d="M46.3143 37.296C46.4903 37.3253 46.5783 37.4133 46.5783 37.56C46.5783 37.6773 46.4903 37.824 46.3143 38C46.1677 38.2053 46.0063 38.4253 45.8303 38.66C45.2437 39.4813 44.569 40.0533 43.8063 40.376C43.0437 40.728 42.3397 40.904 41.6943 40.904C41.0783 40.904 40.565 40.7867 40.1543 40.552C39.861 40.3467 39.509 40.024 39.0983 39.584C38.717 39.1733 38.3797 38.6307 38.0863 37.956C37.8223 37.2813 37.7197 36.4893 37.7783 35.58C37.837 34.612 37.969 33.4973 38.1743 32.236C38.3797 30.9453 38.6143 29.64 38.8783 28.32C39.1423 27 39.377 25.7827 39.5823 24.668C39.817 23.524 39.9783 22.6293 40.0663 21.984C40.1837 21.0747 39.949 20.62 39.3623 20.62C38.9223 20.62 38.3943 20.8987 37.7783 21.456C37.309 22.1013 36.693 22.9227 35.9303 23.92C35.197 24.9173 34.449 26.4133 33.6863 28.408C33.3637 29.288 32.997 30.2707 32.5863 31.356C32.1757 32.412 31.897 33.6733 31.7503 35.14C31.721 35.3453 31.721 35.5653 31.7503 35.8C31.809 36.0347 31.8383 36.2693 31.8383 36.504C31.8383 36.7973 31.765 37.0613 31.6183 37.296C31.3543 37.6773 31.0463 37.9413 30.6943 38.088C30.577 38.1173 30.4597 38.1467 30.3423 38.176C30.2543 38.2053 30.1663 38.22 30.0783 38.22C29.9317 38.22 29.7997 38.1467 29.6823 38C29.477 37.7653 29.3743 37.3987 29.3743 36.9C29.3743 36.4013 29.433 35.888 29.5503 35.36C29.697 34.8027 29.7997 34.2893 29.8583 33.82C30.005 32.7347 30.1517 31.5907 30.2983 30.388C30.4743 29.156 30.5623 27.8213 30.5623 26.384C30.5623 25.416 30.5037 24.404 30.3863 23.348C30.2983 22.2627 30.137 21.0893 29.9023 19.828C29.785 19.2413 29.6823 18.6987 29.5943 18.2C29.5063 17.7013 29.213 17.2907 28.7143 16.968C28.3623 16.7333 28.0397 16.924 27.7463 17.54C27.453 18.156 27.189 19.0653 26.9543 20.268C26.749 21.4707 26.5437 22.864 26.3383 24.448C26.133 26.0027 25.9423 27.616 25.7663 29.288C25.473 31.7813 25.2237 34.04 25.0183 36.064C24.8423 38.088 24.7103 39.5547 24.6223 40.464C24.593 40.8747 24.3143 41.212 23.7863 41.476C23.2877 41.7693 22.7597 41.9747 22.2023 42.092C21.6743 42.2387 21.3077 42.312 21.1023 42.312C20.8677 42.312 20.7503 42.136 20.7503 41.784C20.7503 41.4613 20.809 41.0947 20.9263 40.684C21.073 40.3027 21.1757 39.9947 21.2343 39.76C21.8503 37.9707 22.2757 36.2693 22.5103 34.656C22.7743 33.0133 22.9063 31.444 22.9063 29.948C22.9063 28.3933 22.8037 26.912 22.5983 25.504C22.393 24.096 22.1437 22.7613 21.8503 21.5C21.5277 20.0627 20.8823 18.6693 19.9143 17.32C18.9463 15.9413 17.7437 14.812 16.3063 13.932C14.869 13.0227 13.2703 12.568 11.5103 12.568C10.3957 12.568 9.31034 12.7587 8.25434 13.14C7.19834 13.492 6.14234 14.0933 5.08634 14.944C4.03034 15.7947 3.15034 16.8947 2.44634 18.244C1.74234 19.5933 1.39034 21.192 1.39034 23.04C1.39034 24.7413 1.75701 26.604 2.49034 28.628C2.84234 29.5373 3.44368 30.3587 4.29434 31.092C5.14501 31.8253 6.06901 32.412 7.06634 32.852C8.06368 33.292 8.94368 33.512 9.70634 33.512C10.0583 33.512 10.337 33.468 10.5423 33.38C11.745 32.94 12.625 32.236 13.1823 31.268C13.7397 30.3 14.0183 29.3173 14.0183 28.32C14.0183 27.44 13.813 26.6187 13.4023 25.856C13.021 25.064 12.449 24.4773 11.6863 24.096C11.305 23.92 11.1143 23.6707 11.1143 23.348C11.1143 22.9667 11.4077 22.776 11.9943 22.776C12.405 22.776 12.8597 22.8933 13.3583 23.128C13.945 23.3627 14.5023 23.832 15.0303 24.536C15.5583 25.24 15.9397 26.032 16.1743 26.912C16.233 27.1173 16.277 27.3373 16.3063 27.572C16.3357 27.8067 16.3503 28.0413 16.3503 28.276C16.3503 29.2733 16.1157 30.2413 15.6463 31.18C15.2063 32.1187 14.6637 32.94 14.0183 33.644C13.4023 34.3187 12.8157 34.7587 12.2583 34.964C11.6717 35.1693 11.0117 35.272 10.2783 35.272C9.13434 35.272 7.96101 35.0227 6.75834 34.524C5.55568 33.996 4.45568 33.2627 3.45834 32.324C2.49034 31.356 1.77168 30.2413 1.30234 28.98C0.891677 27.8067 0.598344 26.7067 0.422344 25.68C0.21701 24.6533 0.114344 23.7 0.114344 22.82C0.114344 20.7373 0.52501 18.9773 1.34634 17.54C2.16768 16.1027 3.17968 14.944 4.38234 14.064C5.58501 13.1547 6.75834 12.4947 7.90234 12.084C8.63568 11.82 9.32501 11.6293 9.97034 11.512C10.645 11.3947 11.2903 11.336 11.9063 11.336C13.3437 11.336 14.649 11.6293 15.8223 12.216C16.9957 12.7733 18.037 13.5067 18.9463 14.416C19.8557 15.3253 20.6477 16.3227 21.3223 17.408C21.997 18.464 22.569 19.52 23.0383 20.576C23.5077 21.6027 23.889 22.4973 24.1823 23.26C24.2997 23.7293 24.417 24.1253 24.5343 24.448C24.6517 24.7707 24.769 24.932 24.8863 24.932C25.0623 24.932 25.165 24.4773 25.1943 23.568C25.2237 22.424 25.429 21.236 25.8103 20.004C26.221 18.772 26.6023 17.6133 26.9543 16.528C27.189 16.0293 27.4677 15.6627 27.7903 15.428C28.1423 15.1933 28.4943 15.076 28.8463 15.076C29.3157 15.076 29.697 15.252 29.9903 15.604C30.9583 16.6307 31.5597 17.5693 31.7943 18.42C32.0583 19.2707 32.205 20.2973 32.2343 21.5C32.2637 22.4387 32.3223 23.2747 32.4103 24.008C32.5277 24.712 32.6743 25.2253 32.8503 25.548C33.4957 24.6093 34.1263 23.6853 34.7423 22.776C35.3877 21.8667 36.0037 21.0893 36.5903 20.444C37.177 19.7693 37.6757 19.3587 38.0863 19.212C38.4383 19.0947 38.7757 19.036 39.0983 19.036C39.685 19.036 40.1543 19.1827 40.5063 19.476C40.8583 19.7693 41.1223 20.0773 41.2983 20.4C41.5037 20.7227 41.621 20.9133 41.6503 20.972C41.8557 21.5 41.9583 22.116 41.9583 22.82C41.9583 23.7587 41.797 24.7413 41.4743 25.768C41.181 26.7947 40.8437 27.8213 40.4623 28.848C40.081 29.8747 39.729 30.8573 39.4063 31.796C39.113 32.7053 38.9663 33.5267 38.9663 34.26C38.9663 35.7267 39.025 36.856 39.1423 37.648C39.289 38.4107 39.4797 38.924 39.7143 39.188C39.9783 39.4813 40.2863 39.628 40.6383 39.628C41.0197 39.628 41.4303 39.54 41.8703 39.364C42.3397 39.2173 42.853 39.1293 43.4103 39.1C43.8797 39.0707 44.2903 38.8947 44.6423 38.572C44.9943 38.2787 45.3023 37.9853 45.5663 37.692C45.8597 37.3987 46.109 37.2667 46.3143 37.296ZM61.6263 34.568C61.7143 34.48 61.8317 34.436 61.9783 34.436C62.1837 34.436 62.2863 34.5387 62.2863 34.744C62.2863 34.8613 62.213 35.0373 62.0663 35.272C61.949 35.5067 61.685 35.7853 61.2743 36.108C60.8637 36.46 60.4383 36.7827 59.9983 37.076C59.5877 37.3693 59.0157 37.516 58.2823 37.516C57.4903 37.516 56.8597 37.3693 56.3903 37.076C55.9503 36.7827 55.6277 36.46 55.4223 36.108C55.2463 35.7267 55.129 35.4333 55.0703 35.228C54.7183 35.492 54.3517 35.844 53.9703 36.284C53.6183 36.6947 53.105 37.076 52.4303 37.428C51.7557 37.7507 50.7877 37.912 49.5263 37.912C48.8223 37.912 48.177 37.7507 47.5903 37.428C47.033 37.076 46.7543 36.328 46.7543 35.184C46.7543 34.8613 46.769 34.524 46.7983 34.172C46.857 33.7907 46.945 33.38 47.0623 32.94C47.4143 31.5613 47.825 30.476 48.2943 29.684C48.7637 28.892 49.4677 28.3053 50.4063 27.924C50.993 27.6893 51.7117 27.4693 52.5623 27.264C53.413 27.0587 54.161 26.8827 54.8063 26.736C55.0117 26.6773 55.1877 26.4867 55.3343 26.164C55.5103 25.812 55.701 25.4893 55.9063 25.196C56.0237 25.0493 56.1557 24.932 56.3023 24.844C56.449 24.7267 56.6103 24.668 56.7863 24.668C56.933 24.668 57.1237 24.7413 57.3583 24.888C57.5637 25.0347 57.6957 25.3133 57.7543 25.724C57.8423 26.1347 57.8863 26.516 57.8863 26.868C57.857 27.044 57.7837 27.264 57.6663 27.528C57.5783 27.7627 57.505 28.0267 57.4463 28.32C57.3877 28.7013 57.241 29.244 57.0063 29.948C56.7717 30.652 56.6543 31.2387 56.6543 31.708C56.6543 32.1187 56.625 32.632 56.5663 33.248C56.5077 33.8347 56.5077 34.2453 56.5663 34.48C56.889 35.184 57.3437 35.6533 57.9303 35.888C58.517 36.0933 59.0303 36.152 59.4703 36.064C59.793 36.0053 60.1597 35.8147 60.5703 35.492C60.981 35.1693 61.333 34.8613 61.6263 34.568ZM54.4983 29.552C54.4397 29.3173 54.293 29.068 54.0583 28.804C53.853 28.54 53.589 28.408 53.2663 28.408C53.2077 28.408 53.0903 28.4373 52.9143 28.496C52.4157 28.672 51.8877 29.0093 51.3303 29.508C50.773 29.9773 50.289 30.5933 49.8783 31.356C49.4677 32.1187 49.233 33.0133 49.1743 34.04C49.1743 34.3333 49.2623 34.7147 49.4383 35.184C49.6437 35.6533 49.9077 36.0493 50.2303 36.372C50.553 36.6947 50.8757 36.7827 51.1983 36.636C51.9023 36.3427 52.489 35.932 52.9583 35.404C53.457 34.8467 53.8677 34.172 54.1903 33.38C54.337 32.9987 54.4397 32.6027 54.4983 32.192C54.5863 31.752 54.6303 31.3413 54.6303 30.96C54.6303 30.608 54.6157 30.3147 54.5863 30.08C54.557 29.816 54.5277 29.64 54.4983 29.552ZM76.7606 11.248C76.2913 12.304 75.9246 13.184 75.6606 13.888C75.3966 14.592 75.162 15.2373 74.9566 15.824C74.7806 16.3813 74.546 16.9827 74.2526 17.628C73.9886 18.2733 73.5926 19.0507 73.0646 19.96C72.566 20.84 71.8766 21.9693 70.9966 23.348C70.7033 23.8173 70.4393 24.316 70.2046 24.844C69.9993 25.3427 69.75 25.812 69.4566 26.252C69.7793 26.0173 70.1166 25.68 70.4686 25.24C70.85 24.7707 71.3193 24.3307 71.8766 23.92C72.0233 23.8027 72.2433 23.612 72.5366 23.348C72.83 23.0547 73.138 22.7907 73.4606 22.556C73.8126 22.292 74.106 22.16 74.3406 22.16C74.8393 22.16 75.25 22.424 75.5726 22.952C75.9246 23.48 76.1006 23.9933 76.1006 24.492C76.1006 25.02 75.9246 25.592 75.5726 26.208C75.25 26.7947 74.81 27.352 74.2526 27.88C73.7246 28.408 73.1526 28.848 72.5366 29.2C71.95 29.5227 71.4073 29.6987 70.9086 29.728L70.0286 29.772C69.9993 29.9773 69.9553 30.3587 69.8966 30.916C69.8673 31.4733 69.838 32.0747 69.8086 32.72C69.8086 33.336 69.794 33.8787 69.7646 34.348C69.7646 34.788 69.7646 35.008 69.7646 35.008C69.882 35.5947 70.1606 36.0347 70.6006 36.328C71.07 36.6213 71.5833 36.768 72.1406 36.768C72.4926 36.768 72.8446 36.7093 73.1966 36.592C73.5486 36.4747 73.8713 36.284 74.1646 36.02C74.37 35.8147 74.5606 35.712 74.7366 35.712C74.9713 35.712 75.0886 35.8587 75.0886 36.152C75.0886 36.5333 74.9126 36.856 74.5606 37.12C73.6513 37.7653 72.8006 38.088 72.0086 38.088C71.1286 38.088 70.3806 37.78 69.7646 37.164C69.178 36.548 68.782 35.8733 68.5766 35.14C68.5766 35.14 68.5033 34.92 68.3566 34.48C68.21 34.04 68.0633 33.5413 67.9166 32.984C67.77 32.3973 67.6966 31.8987 67.6966 31.488C67.6966 31.136 67.7113 30.8133 67.7406 30.52C67.77 30.1973 67.7993 29.8893 67.8286 29.596C67.5353 30.0947 67.1833 30.608 66.7726 31.136C66.362 31.6347 66.0686 32.1627 65.8926 32.72C65.6873 33.4827 65.3206 34.2893 64.7926 35.14C64.2646 35.9907 63.8246 36.7533 63.4726 37.428C63.2966 37.7213 63.0033 37.868 62.5926 37.868C62.3873 37.868 62.1966 37.8093 62.0206 37.692C61.8446 37.5747 61.7713 37.4133 61.8006 37.208C61.9766 36.0933 62.2113 35.0667 62.5046 34.128C62.8273 33.16 63.194 32.1333 63.6046 31.048C63.8686 30.344 64.074 29.8307 64.2206 29.508C64.3673 29.156 64.4993 28.7747 64.6166 28.364C64.734 27.9533 64.8806 27.3227 65.0566 26.472C65.3793 25.064 65.6433 23.9053 65.8486 22.996C66.0833 22.0573 66.3326 21.2213 66.5966 20.488C66.8606 19.7253 67.1833 18.9187 67.5646 18.068C67.9753 17.2173 68.5326 16.132 69.2366 14.812C69.354 14.5773 69.618 14.0787 70.0286 13.316C70.4686 12.524 70.982 11.6733 71.5686 10.764C72.1846 9.82533 72.8446 8.98933 73.5486 8.256C74.2526 7.52266 74.9273 7.068 75.5726 6.892C76.13 6.892 76.57 7.03867 76.8926 7.332C77.2446 7.596 77.4206 8.05067 77.4206 8.696C77.4206 9.01867 77.362 9.4 77.2446 9.84C77.1566 10.2507 76.9953 10.72 76.7606 11.248ZM75.7486 8.08C75.1913 8.19733 74.6486 8.608 74.1206 9.312C73.622 10.016 73.1673 10.808 72.7566 11.688C72.3753 12.568 72.0526 13.3747 71.7886 14.108C71.5246 14.8413 71.334 15.3107 71.2166 15.516C70.7766 16.3373 70.4686 16.924 70.2926 17.276C70.146 17.5987 70.0433 17.8627 69.9846 18.068C69.926 18.2733 69.838 18.5813 69.7206 18.992C69.6326 19.3733 69.442 20.0187 69.1486 20.928C68.914 21.632 68.694 22.2333 68.4886 22.732C68.3126 23.2013 68.1366 23.6707 67.9606 24.14C67.814 24.58 67.6673 25.1227 67.5206 25.768C67.4033 26.4133 67.3446 26.8387 67.3446 27.044C67.3446 27.2493 67.2713 27.5573 67.1246 27.968C67.5646 27.44 67.902 27.0293 68.1366 26.736C68.3713 26.4133 68.5473 26.12 68.6646 25.856C68.8113 25.592 68.9726 25.2693 69.1486 24.888C69.3246 24.5067 69.5593 23.9933 69.8526 23.348C70.5273 21.94 71.0993 20.7373 71.5686 19.74C72.0673 18.7133 72.5073 17.7747 72.8886 16.924C73.2993 16.0733 73.7246 15.1787 74.1646 14.24C74.6046 13.272 75.118 12.128 75.7046 10.808C75.91 10.3093 76.0713 9.884 76.1886 9.532C76.306 9.18 76.3646 8.90133 76.3646 8.696C76.3646 8.344 76.1593 8.13867 75.7486 8.08ZM74.5606 24.624C74.6486 24.4187 74.59 24.316 74.3846 24.316C74.1793 24.316 73.8273 24.4627 73.3286 24.756C72.83 25.02 72.5073 25.2107 72.3606 25.328C71.5393 25.8853 70.9526 26.3253 70.6006 26.648C70.278 26.9413 69.8673 27.3373 69.3686 27.836C69.75 27.9827 70.1313 28.056 70.5126 28.056C71.0113 28.056 71.5393 27.8507 72.0966 27.44C72.6833 27.0293 73.2113 26.56 73.6806 26.032C74.15 25.4747 74.4433 25.0053 74.5606 24.624ZM86.1863 32.632C85.8049 33.2773 85.3209 33.9813 84.7343 34.744C84.1476 35.4773 83.5316 36.108 82.8863 36.636C82.2703 37.164 81.6836 37.428 81.1263 37.428C80.2169 37.428 79.4983 37.384 78.9703 37.296C78.4716 37.1787 78.0609 37.0173 77.7383 36.812C77.1809 36.4307 76.7263 35.932 76.3743 35.316C76.0223 34.7 75.8169 34.0693 75.7583 33.424C75.7289 33.248 75.7143 33.072 75.7143 32.896C75.7143 32.72 75.7143 32.5587 75.7143 32.412C75.7143 30.6813 76.0516 29.156 76.7263 27.836C77.4009 26.516 78.3543 25.724 79.5863 25.46C79.9676 25.4013 80.2609 25.5627 80.4663 25.944C80.6716 26.296 80.7743 26.78 80.7743 27.396C80.7743 28.3347 80.5249 29.3467 80.0263 30.432C79.8209 30.872 79.6009 31.2973 79.3663 31.708C79.1609 32.0893 78.9849 32.3973 78.8383 32.632C78.4569 33.1893 78.1636 33.5707 77.9583 33.776C77.7823 33.952 77.6943 34.128 77.6943 34.304C77.6943 34.7733 77.9876 35.228 78.5743 35.668C79.1609 36.108 80.0703 36.328 81.3023 36.328C81.7716 36.328 82.2556 36.1227 82.7543 35.712C83.2529 35.3013 83.7369 34.788 84.2063 34.172C84.7049 33.556 85.1449 32.94 85.5263 32.324C85.7023 32.0307 85.8636 31.884 86.0103 31.884C86.1863 31.884 86.2743 32.016 86.2743 32.28C86.2743 32.3973 86.2449 32.5147 86.1863 32.632ZM79.5863 27.088C79.4689 26.912 79.2196 26.956 78.8383 27.22C78.4863 27.4547 78.1636 28.012 77.8703 28.892C77.6649 29.5373 77.5623 30.2853 77.5623 31.136C77.5623 31.3707 77.5623 31.6053 77.5623 31.84C77.5916 32.0747 77.6209 32.3093 77.6503 32.544C78.1489 31.6933 78.5009 31.0627 78.7063 30.652C78.9409 30.212 79.1169 29.7573 79.2343 29.288C79.2929 29.0533 79.3809 28.76 79.4983 28.408C79.6449 28.056 79.7183 27.748 79.7183 27.484C79.7183 27.308 79.6743 27.176 79.5863 27.088ZM127.31 37.296C127.486 37.3253 127.574 37.4133 127.574 37.56C127.574 37.6773 127.486 37.824 127.31 38C127.164 38.2053 127.002 38.4253 126.826 38.66C126.24 39.4813 125.565 40.0533 124.802 40.376C124.04 40.728 123.336 40.904 122.69 40.904C122.074 40.904 121.561 40.7867 121.15 40.552C120.857 40.3467 120.505 40.024 120.094 39.584C119.713 39.1733 119.376 38.6307 119.082 37.956C118.818 37.2813 118.716 36.4893 118.774 35.58C118.833 34.612 118.965 33.4973 119.17 32.236C119.376 30.9453 119.61 29.64 119.874 28.32C120.138 27 120.373 25.7827 120.578 24.668C120.813 23.524 120.974 22.6293 121.062 21.984C121.18 21.0747 120.945 20.62 120.358 20.62C119.918 20.62 119.39 20.8987 118.774 21.456C118.305 22.1013 117.689 22.9227 116.926 23.92C116.193 24.9173 115.445 26.4133 114.682 28.408C114.36 29.288 113.993 30.2707 113.582 31.356C113.172 32.412 112.893 33.6733 112.746 35.14C112.717 35.3453 112.717 35.5653 112.746 35.8C112.805 36.0347 112.834 36.2693 112.834 36.504C112.834 36.7973 112.761 37.0613 112.614 37.296C112.35 37.6773 112.042 37.9413 111.69 38.088C111.573 38.1173 111.456 38.1467 111.338 38.176C111.25 38.2053 111.162 38.22 111.074 38.22C110.928 38.22 110.796 38.1467 110.678 38C110.473 37.7653 110.37 37.3987 110.37 36.9C110.37 36.4013 110.429 35.888 110.546 35.36C110.693 34.8027 110.796 34.2893 110.854 33.82C111.001 32.7347 111.148 31.5907 111.294 30.388C111.47 29.156 111.558 27.8213 111.558 26.384C111.558 25.416 111.5 24.404 111.382 23.348C111.294 22.2627 111.133 21.0893 110.898 19.828C110.781 19.2413 110.678 18.6987 110.59 18.2C110.502 17.7013 110.209 17.2907 109.71 16.968C109.358 16.7333 109.036 16.924 108.742 17.54C108.449 18.156 108.185 19.0653 107.95 20.268C107.745 21.4707 107.54 22.864 107.334 24.448C107.129 26.0027 106.938 27.616 106.762 29.288C106.469 31.7813 106.22 34.04 106.014 36.064C105.838 38.088 105.706 39.5547 105.618 40.464C105.589 40.8747 105.31 41.212 104.782 41.476C104.284 41.7693 103.756 41.9747 103.198 42.092C102.67 42.2387 102.304 42.312 102.098 42.312C101.864 42.312 101.746 42.136 101.746 41.784C101.746 41.4613 101.805 41.0947 101.922 40.684C102.069 40.3027 102.172 39.9947 102.23 39.76C102.846 37.9707 103.272 36.2693 103.506 34.656C103.77 33.0133 103.902 31.444 103.902 29.948C103.902 28.3933 103.8 26.912 103.594 25.504C103.389 24.096 103.14 22.7613 102.846 21.5C102.524 20.0627 101.878 18.6693 100.91 17.32C99.9424 15.9413 98.7398 14.812 97.3024 13.932C95.8651 13.0227 94.2664 12.568 92.5064 12.568C91.3918 12.568 90.3064 12.7587 89.2504 13.14C88.1944 13.492 87.1384 14.0933 86.0824 14.944C85.0264 15.7947 84.1464 16.8947 83.4424 18.244C82.7384 19.5933 82.3864 21.192 82.3864 23.04C82.3864 24.7413 82.7531 26.604 83.4864 28.628C83.8384 29.5373 84.4398 30.3587 85.2904 31.092C86.1411 31.8253 87.0651 32.412 88.0624 32.852C89.0598 33.292 89.9398 33.512 90.7024 33.512C91.0544 33.512 91.3331 33.468 91.5384 33.38C92.7411 32.94 93.6211 32.236 94.1784 31.268C94.7358 30.3 95.0144 29.3173 95.0144 28.32C95.0144 27.44 94.8091 26.6187 94.3984 25.856C94.0171 25.064 93.4451 24.4773 92.6824 24.096C92.3011 23.92 92.1104 23.6707 92.1104 23.348C92.1104 22.9667 92.4038 22.776 92.9904 22.776C93.4011 22.776 93.8558 22.8933 94.3544 23.128C94.9411 23.3627 95.4984 23.832 96.0264 24.536C96.5544 25.24 96.9358 26.032 97.1704 26.912C97.2291 27.1173 97.2731 27.3373 97.3024 27.572C97.3318 27.8067 97.3464 28.0413 97.3464 28.276C97.3464 29.2733 97.1118 30.2413 96.6424 31.18C96.2024 32.1187 95.6598 32.94 95.0144 33.644C94.3984 34.3187 93.8118 34.7587 93.2544 34.964C92.6678 35.1693 92.0078 35.272 91.2744 35.272C90.1304 35.272 88.9571 35.0227 87.7544 34.524C86.5518 33.996 85.4518 33.2627 84.4544 32.324C83.4864 31.356 82.7678 30.2413 82.2984 28.98C81.8878 27.8067 81.5944 26.7067 81.4184 25.68C81.2131 24.6533 81.1104 23.7 81.1104 22.82C81.1104 20.7373 81.5211 18.9773 82.3424 17.54C83.1638 16.1027 84.1758 14.944 85.3784 14.064C86.5811 13.1547 87.7544 12.4947 88.8984 12.084C89.6318 11.82 90.3211 11.6293 90.9664 11.512C91.6411 11.3947 92.2864 11.336 92.9024 11.336C94.3398 11.336 95.6451 11.6293 96.8184 12.216C97.9918 12.7733 99.0331 13.5067 99.9424 14.416C100.852 15.3253 101.644 16.3227 102.318 17.408C102.993 18.464 103.565 19.52 104.034 20.576C104.504 21.6027 104.885 22.4973 105.178 23.26C105.296 23.7293 105.413 24.1253 105.53 24.448C105.648 24.7707 105.765 24.932 105.882 24.932C106.058 24.932 106.161 24.4773 106.19 23.568C106.22 22.424 106.425 21.236 106.806 20.004C107.217 18.772 107.598 17.6133 107.95 16.528C108.185 16.0293 108.464 15.6627 108.786 15.428C109.138 15.1933 109.49 15.076 109.842 15.076C110.312 15.076 110.693 15.252 110.986 15.604C111.954 16.6307 112.556 17.5693 112.79 18.42C113.054 19.2707 113.201 20.2973 113.23 21.5C113.26 22.4387 113.318 23.2747 113.406 24.008C113.524 24.712 113.67 25.2253 113.846 25.548C114.492 24.6093 115.122 23.6853 115.738 22.776C116.384 21.8667 117 21.0893 117.586 20.444C118.173 19.7693 118.672 19.3587 119.082 19.212C119.434 19.0947 119.772 19.036 120.094 19.036C120.681 19.036 121.15 19.1827 121.502 19.476C121.854 19.7693 122.118 20.0773 122.294 20.4C122.5 20.7227 122.617 20.9133 122.646 20.972C122.852 21.5 122.954 22.116 122.954 22.82C122.954 23.7587 122.793 24.7413 122.47 25.768C122.177 26.7947 121.84 27.8213 121.458 28.848C121.077 29.8747 120.725 30.8573 120.402 31.796C120.109 32.7053 119.962 33.5267 119.962 34.26C119.962 35.7267 120.021 36.856 120.138 37.648C120.285 38.4107 120.476 38.924 120.71 39.188C120.974 39.4813 121.282 39.628 121.634 39.628C122.016 39.628 122.426 39.54 122.866 39.364C123.336 39.2173 123.849 39.1293 124.406 39.1C124.876 39.0707 125.286 38.8947 125.638 38.572C125.99 38.2787 126.298 37.9853 126.562 37.692C126.856 37.3987 127.105 37.2667 127.31 37.296ZM141.082 35.228C140.32 36.1373 139.66 36.768 139.102 37.12C138.545 37.472 138.061 37.648 137.65 37.648C137.122 37.648 136.668 37.4427 136.286 37.032C135.934 36.592 135.626 36.1227 135.362 35.624C135.128 35.1253 134.937 34.7733 134.79 34.568C134.233 35.0667 133.573 35.5947 132.81 36.152C132.048 36.68 131.417 36.944 130.918 36.944C129.98 36.944 129.246 36.7093 128.718 36.24C128.19 35.7413 127.926 35.0227 127.926 34.084C127.926 33.116 128.044 31.972 128.278 30.652C128.542 29.332 128.865 28.0267 129.246 26.736C129.628 25.416 129.994 24.316 130.346 23.436C130.434 23.172 130.61 22.952 130.874 22.776C131.168 22.6 131.461 22.512 131.754 22.512C132.106 22.512 132.341 22.6 132.458 22.776C132.576 22.952 132.634 23.1573 132.634 23.392C132.634 23.6853 132.576 23.9787 132.458 24.272C132.37 24.536 132.326 24.668 132.326 24.668C131.974 25.6653 131.564 26.7067 131.094 27.792C130.654 28.8773 130.244 30.1093 129.862 31.488C129.833 31.664 129.789 31.9133 129.73 32.236C129.701 32.5587 129.686 32.896 129.686 33.248C129.686 33.7467 129.745 34.216 129.862 34.656C130.009 35.0667 130.273 35.272 130.654 35.272C130.977 35.272 131.402 35.0813 131.93 34.7C132.488 34.3187 133.045 33.7907 133.602 33.116C134.16 32.4413 134.6 31.664 134.922 30.784C135.216 29.992 135.48 29.1267 135.714 28.188C135.949 27.2493 136.154 26.3693 136.33 25.548C136.536 24.6973 136.726 24.0373 136.902 23.568C136.99 23.3627 137.122 23.26 137.298 23.26C137.533 23.26 137.738 23.348 137.914 23.524C138.12 23.7 138.193 23.8613 138.134 24.008C138.017 24.3013 137.856 24.7853 137.65 25.46C137.445 26.1347 137.24 26.8827 137.034 27.704C136.829 28.5253 136.638 29.332 136.462 30.124C136.286 30.8867 136.14 31.532 136.022 32.06C135.905 32.588 135.846 32.8813 135.846 32.94C135.846 33.38 135.89 33.776 135.978 34.128C136.066 34.48 136.213 34.8613 136.418 35.272C136.565 35.5067 136.741 35.7707 136.946 36.064C137.181 36.328 137.416 36.46 137.65 36.46C138.208 36.46 138.736 36.2693 139.234 35.888C139.762 35.4773 140.158 35.0813 140.422 34.7C140.628 34.3773 140.818 34.216 140.994 34.216C141.17 34.216 141.258 34.3773 141.258 34.7C141.258 34.9347 141.2 35.1107 141.082 35.228ZM150.591 35.008C150.21 35.3893 149.873 35.7707 149.579 36.152C149.286 36.5333 148.641 36.9733 147.643 37.472C147.526 37.648 147.262 37.912 146.851 38.264C146.47 38.616 145.707 38.8213 144.563 38.88C143.801 38.9093 143.185 38.7187 142.715 38.308C142.275 37.9267 141.938 37.4573 141.703 36.9C141.469 36.3427 141.263 35.8293 141.087 35.36C141.058 35.3893 140.926 35.5067 140.691 35.712C140.457 35.9173 140.222 36.1227 139.987 36.328C139.723 36.5333 139.562 36.6653 139.503 36.724C139.474 36.7533 139.415 36.768 139.327 36.768C139.181 36.768 139.063 36.6947 138.975 36.548C138.858 36.372 138.858 36.2253 138.975 36.108C139.533 35.5507 139.958 35.1253 140.251 34.832C140.545 34.5093 140.809 34.2013 141.043 33.908C141.278 33.6147 141.557 33.248 141.879 32.808C142.378 32.0453 142.906 31.3707 143.463 30.784C144.05 30.168 144.417 29.7133 144.563 29.42C144.593 29.3907 144.607 29.332 144.607 29.244C144.607 29.156 144.563 29.0827 144.475 29.024C144.417 28.9653 144.373 28.892 144.343 28.804C144.226 28.3347 144.167 27.8947 144.167 27.484C144.167 26.8387 144.417 26.076 144.915 25.196C145.121 25.0493 145.399 24.932 145.751 24.844C146.103 24.7267 146.382 24.712 146.587 24.8C146.822 24.9173 146.969 25.0493 147.027 25.196C147.115 25.3427 147.189 25.5333 147.247 25.768C147.247 25.7973 147.247 25.8267 147.247 25.856C147.277 25.8853 147.291 25.9293 147.291 25.988C147.291 26.164 147.262 26.3547 147.203 26.56C147.145 26.7653 147.071 26.9853 146.983 27.22C146.983 27.3373 146.837 27.5573 146.543 27.88C146.279 28.2027 146.191 28.408 146.279 28.496C146.455 28.8773 146.749 29.376 147.159 29.992C147.658 30.696 147.995 31.3413 148.171 31.928C148.377 32.5147 148.479 33.0427 148.479 33.512C148.479 34.0693 148.391 34.5533 148.215 34.964C148.069 35.3747 147.951 35.7267 147.863 36.02C148.127 36.0493 148.435 35.9173 148.787 35.624C149.139 35.3013 149.477 34.9493 149.799 34.568C150.151 34.1573 150.415 33.864 150.591 33.688C150.767 33.512 150.899 33.424 150.987 33.424C151.134 33.424 151.134 33.644 150.987 34.084C150.87 34.524 150.738 34.832 150.591 35.008ZM146.323 26.56C146.323 26.4427 146.309 26.3107 146.279 26.164C146.25 26.0173 146.162 25.9293 146.015 25.9H145.971C145.825 25.9 145.707 25.9733 145.619 26.12C145.531 26.2373 145.458 26.3547 145.399 26.472C145.311 26.7067 145.223 26.912 145.135 27.088C145.077 27.2347 145.106 27.3813 145.223 27.528C145.341 27.5867 145.546 27.4693 145.839 27.176C146.162 26.8533 146.323 26.648 146.323 26.56ZM146.411 33.6C146.411 33.16 146.323 32.6907 146.147 32.192C146.001 31.664 145.825 31.1947 145.619 30.784C145.443 30.3733 145.311 30.1093 145.223 29.992C145.223 29.992 145.047 30.212 144.695 30.652C144.343 31.0627 143.962 31.5173 143.551 32.016C143.287 32.3093 143.023 32.6907 142.759 33.16C142.495 33.6293 142.334 34.04 142.275 34.392C142.275 34.392 142.407 34.568 142.671 34.92C142.935 35.2427 143.258 35.5507 143.639 35.844C144.05 36.1373 144.446 36.24 144.827 36.152C145.414 36.0053 145.825 35.668 146.059 35.14C146.294 34.5827 146.411 34.0693 146.411 33.6ZM144.915 37.032H144.519C144.402 37.032 144.27 37.032 144.123 37.032C143.977 37.0027 143.83 36.9733 143.683 36.944C143.537 36.8853 143.317 36.768 143.023 36.592C142.73 36.416 142.583 36.328 142.583 36.328C142.583 36.328 142.569 36.3573 142.539 36.416C142.539 36.4747 142.539 36.548 142.539 36.636C142.539 36.7533 142.554 36.8853 142.583 37.032C142.642 37.1787 142.745 37.3253 142.891 37.472C143.126 37.648 143.331 37.7947 143.507 37.912C143.683 38 143.918 38 144.211 37.912C144.417 37.8533 144.578 37.692 144.695 37.428C144.842 37.164 144.915 37.032 144.915 37.032ZM159.167 20.224C158.962 20.224 158.757 20.1947 158.551 20.136C158.375 20.048 158.199 19.9453 158.023 19.828C157.642 19.652 157.451 19.2707 157.451 18.684C157.451 18.42 157.51 18.1267 157.627 17.804C157.774 17.4813 157.994 17.1733 158.287 16.88C158.493 16.6747 158.742 16.572 159.035 16.572C159.299 16.572 159.549 16.6747 159.783 16.88C159.901 16.9973 159.974 17.188 160.003 17.452C160.062 17.6867 160.091 17.9507 160.091 18.244C160.091 18.596 160.062 18.948 160.003 19.3C159.945 19.6227 159.842 19.8573 159.695 20.004C159.49 20.1507 159.314 20.224 159.167 20.224ZM154.679 37.516C153.594 37.516 152.846 37.2667 152.435 36.768C152.025 36.2693 151.819 35.668 151.819 34.964C151.819 34.6413 151.849 34.3187 151.907 33.996C151.966 33.6733 152.039 33.3507 152.127 33.028C151.834 33.556 151.379 34.172 150.763 34.876C150.147 35.5507 149.575 36.0933 149.047 36.504C148.93 36.592 148.813 36.636 148.695 36.636C148.519 36.636 148.431 36.5333 148.431 36.328C148.431 36.0933 148.519 35.888 148.695 35.712C149.927 34.4213 150.866 33.38 151.511 32.588C152.157 31.7667 152.655 31.0773 153.007 30.52C153.359 29.9627 153.697 29.4493 154.019 28.98C154.283 28.1293 154.518 27.308 154.723 26.516C154.958 25.6947 155.31 24.8587 155.779 24.008C155.926 23.744 156.219 23.612 156.659 23.612C156.953 23.612 157.217 23.6853 157.451 23.832C157.686 23.9787 157.803 24.228 157.803 24.58C157.803 24.756 157.759 24.9613 157.671 25.196C157.349 26.1053 156.997 26.8827 156.615 27.528C156.263 28.144 155.794 28.936 155.207 29.904C154.591 30.9013 154.093 31.8693 153.711 32.808C153.359 33.7467 153.183 34.5387 153.183 35.184C153.183 35.5947 153.271 35.932 153.447 36.196C153.653 36.46 153.946 36.592 154.327 36.592C155.149 36.6213 155.779 36.4893 156.219 36.196C156.659 35.8733 157.026 35.5653 157.319 35.272C157.701 34.8613 158.023 34.48 158.287 34.128C158.581 33.776 158.845 33.468 159.079 33.204C159.255 33.028 159.343 33.0573 159.343 33.292C159.343 33.4387 159.299 33.6293 159.211 33.864C159.153 34.0987 159.079 34.2747 158.991 34.392C158.698 34.8027 158.346 35.2573 157.935 35.756C157.554 36.2547 157.099 36.68 156.571 37.032C156.043 37.3547 155.413 37.516 154.679 37.516ZM166.673 35.096C165.939 36.0347 165.25 36.6947 164.605 37.076C163.959 37.4573 163.343 37.692 162.757 37.78C162.17 37.8387 161.554 37.868 160.909 37.868C159.911 37.868 159.134 37.5453 158.577 36.9C158.049 36.2253 157.755 35.448 157.697 34.568C157.667 33.9813 157.697 33.2773 157.785 32.456C157.902 31.6347 158.195 30.74 158.665 29.772C159.105 28.8627 159.574 28.2027 160.073 27.792C160.571 27.352 161.055 27.044 161.525 26.868C161.994 26.692 162.375 26.5453 162.669 26.428C162.903 26.34 163.153 26.296 163.417 26.296C164.003 26.296 164.473 26.4427 164.825 26.736C164.971 26.8533 165.059 27.0147 165.089 27.22C165.147 27.396 165.177 27.5867 165.177 27.792C165.177 27.9093 165.162 28.0413 165.133 28.188C165.133 28.3053 165.118 28.4227 165.089 28.54C165.03 28.9213 164.854 29.42 164.561 30.036C164.297 30.6227 164.047 31.1947 163.813 31.752C163.637 31.928 163.446 32.016 163.241 32.016C163.006 32.016 162.947 31.884 163.065 31.62C163.211 31.0333 163.402 30.5493 163.637 30.168C163.901 29.7573 164.033 29.4053 164.033 29.112C164.062 29.024 164.077 28.936 164.077 28.848C164.077 28.76 164.077 28.6867 164.077 28.628C164.077 28.2173 163.901 27.9387 163.549 27.792C163.373 27.7333 163.241 27.704 163.153 27.704C162.771 27.704 162.331 27.88 161.833 28.232C161.334 28.584 160.923 29.068 160.601 29.684C160.219 30.3587 159.941 31.1213 159.765 31.972C159.618 32.8227 159.545 33.5413 159.545 34.128C159.545 34.832 159.794 35.4187 160.293 35.888C160.821 36.328 161.451 36.5187 162.185 36.46C163.006 36.372 163.798 36.152 164.561 35.8C165.353 35.448 166.027 34.9053 166.585 34.172C166.673 34.1133 166.761 34.084 166.849 34.084C166.937 34.084 166.981 34.1427 166.981 34.26C166.981 34.3773 166.937 34.5387 166.849 34.744C166.79 34.92 166.731 35.0373 166.673 35.096Z" fill="white"/>
<defs>
<clipPath id="clip0_1_18">
<rect width="42" height="42" fill="white" transform="translate(177 5)"/>
</clipPath>
</defs>
</svg>
