<svg width="40" height="40" viewBox="0 0 40 40" fill="none" xmlns="http://www.w3.org/2000/svg">
<path d="M35.1094 2.05389C34.6875 2.25389 33.9688 2.60077 32.9844 3.15858C31.6094 3.93827 30.0391 5.00546 29.3984 5.83593C29.2578 6.01796 29.0078 6.64764 28.8672 7.18358C28.7734 7.53436 28.7578 7.65389 28.7266 7.82811L32.1641 11.2656C32.3359 11.2344 32.4609 11.2187 32.8125 11.125C33.3516 10.9844 33.9844 10.7344 34.1641 10.5937C34.9922 9.95311 36.0625 8.39061 36.8359 7.01639C37.3984 6.03046 37.7422 5.31249 37.9453 4.88827L35.1094 2.05389ZM33.9844 4.24374L35.7578 6.01171L34.7578 7.00702L32.9844 5.23905L33.9844 4.24374ZM27.9609 9.04686L3.31954 33.6953C3.9336 33.9297 4.54298 34.3437 5.09845 34.8984C5.65235 35.4531 6.06485 36.0625 6.30313 36.6719L30.9453 12.0312L27.9609 9.04686ZM27.3125 11.4453C27.3151 11.4453 27.3177 11.4453 27.3203 11.4453C27.6462 11.45 27.9574 11.5817 28.1875 11.8125C28.4213 12.0468 28.5526 12.3643 28.5526 12.6953C28.5526 13.0263 28.4213 13.3438 28.1875 13.5781C28.0713 13.695 27.9332 13.7878 27.781 13.8512C27.6288 13.9145 27.4656 13.9471 27.3008 13.9471C27.136 13.9471 26.9728 13.9145 26.8206 13.8512C26.6684 13.7878 26.5302 13.695 26.4141 13.5781C26.1803 13.3438 26.049 13.0263 26.049 12.6953C26.049 12.3643 26.1803 12.0468 26.4141 11.8125C26.5318 11.6945 26.6719 11.6012 26.8262 11.5381C26.9805 11.4751 27.1458 11.4435 27.3125 11.4453ZM23.7891 14.9844C24.1111 14.989 24.419 15.1177 24.6484 15.3437C24.7654 15.4599 24.8582 15.5981 24.9215 15.7502C24.9848 15.9024 25.0174 16.0656 25.0174 16.2305C25.0174 16.3953 24.9848 16.5585 24.9215 16.7107C24.8582 16.8628 24.7654 17.001 24.6484 17.1172C24.4141 17.3509 24.0966 17.4822 23.7656 17.4822C23.4346 17.4822 23.1172 17.3509 22.8828 17.1172C22.7659 17.001 22.6731 16.8628 22.6098 16.7107C22.5465 16.5585 22.5139 16.3953 22.5139 16.2305C22.5139 16.0656 22.5465 15.9024 22.6098 15.7502C22.6731 15.5981 22.7659 15.4599 22.8828 15.3437C23.0021 15.2262 23.1438 15.1338 23.2995 15.0721C23.4551 15.0103 23.6216 14.9805 23.7891 14.9844ZM20.25 18.5156C20.5759 18.5203 20.8871 18.652 21.1172 18.8828C21.351 19.1171 21.4822 19.4346 21.4822 19.7656C21.4822 20.0966 21.351 20.4141 21.1172 20.6484C20.8829 20.8822 20.5654 21.0135 20.2344 21.0135C19.9034 21.0135 19.5859 20.8822 19.3516 20.6484C19.1178 20.4141 18.9865 20.0966 18.9865 19.7656C18.9865 19.4346 19.1178 19.1171 19.3516 18.8828C19.4693 18.7648 19.6094 18.6715 19.7637 18.6084C19.918 18.5454 20.0833 18.5138 20.25 18.5156ZM16.7109 22.0547C16.7135 22.0547 16.7162 22.0547 16.7188 22.0547C17.0419 22.0614 17.3499 22.193 17.5781 22.4219C17.8119 22.6562 17.9432 22.9737 17.9432 23.3047C17.9432 23.6357 17.8119 23.9532 17.5781 24.1875C17.3438 24.4213 17.0263 24.5525 16.6953 24.5525C16.3643 24.5525 16.0468 24.4213 15.8125 24.1875C15.5787 23.9532 15.4475 23.6357 15.4475 23.3047C15.4475 22.9737 15.5787 22.6562 15.8125 22.4219C15.9302 22.3038 16.0703 22.2106 16.2246 22.1475C16.3789 22.0844 16.5443 22.0529 16.7109 22.0547ZM13.1797 25.5937C13.5045 25.5963 13.8155 25.7252 14.0469 25.9531C14.1638 26.0693 14.2566 26.2074 14.3199 26.3596C14.3832 26.5118 14.4158 26.675 14.4158 26.8398C14.4158 27.0047 14.3832 27.1679 14.3199 27.32C14.2566 27.4722 14.1638 27.6104 14.0469 27.7265C13.9307 27.8435 13.7926 27.9363 13.6404 27.9996C13.4882 28.0629 13.325 28.0955 13.1602 28.0955C12.9953 28.0955 12.8321 28.0629 12.68 27.9996C12.5278 27.9363 12.3896 27.8435 12.2734 27.7265C12.1565 27.6104 12.0637 27.4722 12.0004 27.32C11.9371 27.1679 11.9045 27.0047 11.9045 26.8398C11.9045 26.675 11.9371 26.5118 12.0004 26.3596C12.0637 26.2074 12.1565 26.0693 12.2734 25.9531C12.3927 25.8356 12.5344 25.7432 12.6901 25.6814C12.8458 25.6197 13.0123 25.5899 13.1797 25.5937ZM2.26876 34.8828C2.15626 34.8828 2.10235 34.9141 2.09298 34.9219C2.07657 34.9375 1.99923 35.1016 2.12657 35.5078C2.25938 35.9141 2.58517 36.4531 3.06563 36.9297C3.5461 37.4141 4.08204 37.7422 4.49063 37.875C4.89376 38 5.06017 37.9219 5.07657 37.9062C5.09298 37.8906 5.17032 37.7187 5.04298 37.3203C4.91095 36.9141 4.58438 36.375 4.10392 35.8906C3.62345 35.4141 3.08751 35.0859 2.67892 34.9531C2.52813 34.9062 2.41017 34.8906 2.3211 34.8828H2.26876Z" fill="black"/>
</svg>
