<svg width="40" height="40" viewBox="0 0 40 40" fill="none" xmlns="http://www.w3.org/2000/svg">
<g clip-path="url(#clip0_1_32)">
<path d="M36.2985 8.25291e-05C35.9046 8.25291e-05 35.4923 0.13239 35.1923 0.43239L34.5677 1.10624L34.2785 0.866236C34.2071 0.791682 34.1213 0.73235 34.0264 0.691817C33.9315 0.651283 33.8294 0.630386 33.7262 0.630386C33.6229 0.630386 33.5208 0.651283 33.4259 0.691817C33.3309 0.73235 33.2452 0.791682 33.1738 0.866236C33.0993 0.937613 33.04 1.02334 32.9994 1.11827C32.9589 1.21319 32.938 1.31533 32.938 1.41854C32.938 1.52176 32.9589 1.6239 32.9994 1.71882C33.04 1.81374 33.0993 1.89948 33.1738 1.97085L33.4138 2.26008L33.0292 2.6447L32.74 2.40316C32.6686 2.32861 32.5829 2.26927 32.488 2.22874C32.393 2.18821 32.2909 2.16731 32.1877 2.16731C32.0845 2.16731 31.9823 2.18821 31.8874 2.22874C31.7925 2.26927 31.7068 2.32861 31.6354 2.40316C31.5603 2.47458 31.5006 2.5605 31.4598 2.6557C31.419 2.75091 31.3979 2.85342 31.3979 2.95701C31.3979 3.06059 31.419 3.1631 31.4598 3.25831C31.5006 3.35351 31.5603 3.43943 31.6354 3.51085L31.8754 3.79854L31.5861 4.08624C31.3996 4.27089 31.2656 4.50194 31.198 4.75558C31.1304 5.00922 31.1316 5.2763 31.2015 5.52931L24.4708 12.2601C23.0815 11.0447 20.98 9.61547 18.7015 9.61547C17.6908 9.61547 16.6523 9.92316 15.6246 10.6247C13.3446 12.1832 13.7815 14.5447 12.3554 15.9139C10.7554 17.4524 6.38153 16.2124 2.35538 20.2401C-1.67077 24.2647 0.113841 29.8324 5.24 34.7601C8.31384 37.957 11.6215 39.8555 14.6631 39.8555C16.4954 39.8555 18.2446 39.1601 19.76 37.6447C23.7861 33.6185 22.5462 29.2478 24.0861 27.6447C25.4554 26.2216 27.8631 26.7047 29.4231 24.4232C31.7108 21.0801 29.5031 17.5447 27.74 15.5293L34.4708 8.79854C34.9785 8.92777 35.5154 8.81239 35.9138 8.41393L36.2015 8.1247L36.4908 8.36624C36.557 8.44092 36.6383 8.50087 36.7292 8.54221C36.82 8.58355 36.9186 8.60536 37.0185 8.60624C37.2351 8.60477 37.4423 8.51799 37.5954 8.3647C37.6699 8.29332 37.7293 8.20759 37.7698 8.11267C37.8103 8.01775 37.8312 7.9156 37.8312 7.81239C37.8312 7.70918 37.8103 7.60703 37.7698 7.51211C37.7293 7.41719 37.6699 7.33146 37.5954 7.26008L37.3554 6.97085L37.74 6.58624L38.0292 6.82778C38.0955 6.90246 38.1767 6.96241 38.2676 7.00375C38.3585 7.04509 38.4571 7.0669 38.5569 7.06777C38.7735 7.06631 38.9808 6.97952 39.1338 6.82624C39.2084 6.75486 39.2677 6.66913 39.3083 6.57421C39.3488 6.47929 39.3697 6.37714 39.3697 6.27393C39.3697 6.17072 39.3488 6.06857 39.3083 5.97365C39.2677 5.87873 39.2084 5.793 39.1338 5.72162L38.8938 5.43239L39.5677 4.80778C39.7105 4.66618 39.8238 4.49771 39.9012 4.31208C39.9785 4.12645 40.0184 3.92734 40.0184 3.72624C40.0184 3.52514 39.9785 3.32603 39.9012 3.1404C39.8238 2.95477 39.7105 2.78629 39.5677 2.6447L37.3538 0.430852C37.2163 0.29122 37.0519 0.181024 36.8704 0.106969C36.689 0.0329136 36.4944 -0.0034528 36.2985 8.25291e-05ZM36.2015 1.82777C36.32 1.82777 36.4477 1.83393 36.5385 1.92316C36.6252 2.0139 36.6735 2.13458 36.6735 2.26008C36.6735 2.38559 36.6252 2.50626 36.5385 2.59701L33.4615 5.67393C33.3722 5.76369 33.2513 5.81503 33.1246 5.81701C32.9984 5.81359 32.8783 5.76182 32.7892 5.67239C32.703 5.58173 32.6549 5.46138 32.6549 5.33624C32.6549 5.2111 32.703 5.09075 32.7892 5.00008L35.8661 1.92316C35.9554 1.83393 36.0846 1.82777 36.2015 1.82777ZM37.74 3.36624C37.8585 3.36624 37.9861 3.37085 38.0769 3.46162C38.164 3.55218 38.2126 3.67292 38.2126 3.79854C38.2126 3.92416 38.164 4.04491 38.0769 4.13547L35 7.21239C34.9103 7.30161 34.7896 7.35285 34.6631 7.35547C34.5371 7.35246 34.417 7.30125 34.3277 7.21239C34.241 7.12165 34.1926 7.00097 34.1926 6.87547C34.1926 6.74996 34.241 6.62928 34.3277 6.53854L37.4046 3.46162C37.4938 3.37239 37.6231 3.36624 37.74 3.36624ZM18.7015 11.777C20.1785 11.777 21.7385 12.7801 22.9323 13.797L17.7877 18.9416C17.6738 18.9293 17.5692 18.8924 17.4523 18.8924C16.4842 18.8956 15.5568 19.2816 14.8722 19.9662C14.1877 20.6507 13.8017 21.5782 13.7985 22.5462C13.8017 23.5143 14.1877 24.4418 14.8722 25.1263C15.5568 25.8108 16.4842 26.1968 17.4523 26.2001C18.4204 26.1968 19.3479 25.8108 20.0324 25.1263C20.7169 24.4418 21.1029 23.5143 21.1061 22.5462C21.1061 22.4293 21.0692 22.3247 21.0585 22.2093L26.2492 17.0185C27.5846 18.5662 29.0923 21.0555 27.6446 23.1724C27.1738 23.8585 26.5815 24.1109 25.5292 24.4693C24.6031 24.7847 23.4446 25.1693 22.5 26.1524C21.4631 27.2309 21.2323 28.6493 20.9615 30.1432C20.62 32.0185 20.2369 34.1385 18.2215 36.1524C17.1631 37.2109 15.9969 37.7385 14.6631 37.7385C12.3292 37.7385 9.52923 36.1293 6.77846 33.2678C6.76333 33.2511 6.74741 33.2352 6.73076 33.2201C3.8923 30.4955 2.28307 27.7078 2.25999 25.3847C2.24461 24.0293 2.77384 22.8539 3.84615 21.7785C5.86153 19.7632 7.98153 19.3785 9.85538 19.0385C11.3492 18.7678 12.7692 18.4893 13.8461 17.4524C14.8215 16.517 15.2077 15.3862 15.5292 14.4709C15.8985 13.4216 16.1292 12.8801 16.8277 12.4032C17.4246 11.9955 18.0431 11.777 18.7015 11.777ZM8.55692 25.0462C8.43058 25.049 8.31028 25.1009 8.22153 25.1909L7.25999 26.1539C7.17186 26.2439 7.12249 26.3649 7.12249 26.4909C7.12249 26.6168 7.17186 26.7378 7.25999 26.8278L13.1723 32.7401C13.3538 32.9201 13.6646 32.9201 13.8461 32.7401L14.8077 31.7785C14.8946 31.6882 14.9432 31.5678 14.9432 31.4424C14.9432 31.317 14.8946 31.1965 14.8077 31.1062L8.89384 25.1924C8.80509 25.1024 8.6848 25.0506 8.55846 25.0478L8.55692 25.0462Z" fill="black"/>
</g>
<defs>
<clipPath id="clip0_1_32">
<rect width="40" height="40" fill="white"/>
</clipPath>
</defs>
</svg>
